<mxfile host="app.diagrams.net" modified="2023-07-13T12:36:20.539Z" agent="Mozilla/5.0 (Windows NT 10.0; Win64; x64) AppleWebKit/537.36 (KHTML, like Gecko) Chrome/114.0.0.0 Safari/537.36" etag="pAufauh1TOrRvM85X9RB" version="21.6.1" type="github">
  <diagram id="C5RBs43oDa-KdzZeNtuy" name="Page-1">
    <mxGraphModel dx="2301" dy="1345" grid="1" gridSize="10" guides="1" tooltips="1" connect="1" arrows="1" fold="1" page="1" pageScale="1" pageWidth="827" pageHeight="1169" math="0" shadow="0">
      <root>
        <mxCell id="WIyWlLk6GJQsqaUBKTNV-0" />
        <mxCell id="WIyWlLk6GJQsqaUBKTNV-1" parent="WIyWlLk6GJQsqaUBKTNV-0" />
        <mxCell id="V5mufsEORkos2pQiSRkq-3" value="" style="edgeStyle=orthogonalEdgeStyle;rounded=0;orthogonalLoop=1;jettySize=auto;html=1;" edge="1" parent="WIyWlLk6GJQsqaUBKTNV-1" source="V5mufsEORkos2pQiSRkq-1" target="V5mufsEORkos2pQiSRkq-2">
          <mxGeometry relative="1" as="geometry" />
        </mxCell>
        <mxCell id="V5mufsEORkos2pQiSRkq-1" value="Data received from the service:&lt;br&gt;measured_value: ✔&lt;br&gt;config_value: ✔" style="shape=parallelogram;perimeter=parallelogramPerimeter;whiteSpace=wrap;html=1;fixedSize=1;" vertex="1" parent="WIyWlLk6GJQsqaUBKTNV-1">
          <mxGeometry x="240" y="290" width="220" height="60" as="geometry" />
        </mxCell>
        <mxCell id="V5mufsEORkos2pQiSRkq-7" value="" style="edgeStyle=orthogonalEdgeStyle;rounded=0;orthogonalLoop=1;jettySize=auto;html=1;" edge="1" parent="WIyWlLk6GJQsqaUBKTNV-1" source="V5mufsEORkos2pQiSRkq-2" target="V5mufsEORkos2pQiSRkq-6">
          <mxGeometry relative="1" as="geometry" />
        </mxCell>
        <mxCell id="V5mufsEORkos2pQiSRkq-2" value="Manual entry: ✅&lt;br style=&quot;border-color: var(--border-color);&quot;&gt;Displayed: config_value" style="rounded=1;whiteSpace=wrap;html=1;" vertex="1" parent="WIyWlLk6GJQsqaUBKTNV-1">
          <mxGeometry x="230" y="430" width="240" height="60" as="geometry" />
        </mxCell>
        <mxCell id="V5mufsEORkos2pQiSRkq-11" value="" style="edgeStyle=orthogonalEdgeStyle;rounded=0;orthogonalLoop=1;jettySize=auto;html=1;" edge="1" parent="WIyWlLk6GJQsqaUBKTNV-1" source="V5mufsEORkos2pQiSRkq-6" target="V5mufsEORkos2pQiSRkq-10">
          <mxGeometry relative="1" as="geometry" />
        </mxCell>
        <mxCell id="V5mufsEORkos2pQiSRkq-6" value="Manual entry: ⬜" style="shape=parallelogram;perimeter=parallelogramPerimeter;whiteSpace=wrap;html=1;fixedSize=1;rounded=1;" vertex="1" parent="WIyWlLk6GJQsqaUBKTNV-1">
          <mxGeometry x="260" y="570" width="180" height="60" as="geometry" />
        </mxCell>
        <mxCell id="V5mufsEORkos2pQiSRkq-9" style="edgeStyle=orthogonalEdgeStyle;rounded=0;orthogonalLoop=1;jettySize=auto;html=1;entryX=0;entryY=0.5;entryDx=0;entryDy=0;" edge="1" parent="WIyWlLk6GJQsqaUBKTNV-1" source="V5mufsEORkos2pQiSRkq-8" target="V5mufsEORkos2pQiSRkq-6">
          <mxGeometry relative="1" as="geometry" />
        </mxCell>
        <mxCell id="V5mufsEORkos2pQiSRkq-8" value="Uncheck manual entry" style="ellipse;whiteSpace=wrap;html=1;" vertex="1" parent="WIyWlLk6GJQsqaUBKTNV-1">
          <mxGeometry x="30" y="572.5" width="120" height="55" as="geometry" />
        </mxCell>
        <mxCell id="V5mufsEORkos2pQiSRkq-15" value="" style="edgeStyle=orthogonalEdgeStyle;rounded=0;orthogonalLoop=1;jettySize=auto;html=1;" edge="1" parent="WIyWlLk6GJQsqaUBKTNV-1" source="V5mufsEORkos2pQiSRkq-10" target="V5mufsEORkos2pQiSRkq-14">
          <mxGeometry relative="1" as="geometry" />
        </mxCell>
        <mxCell id="V5mufsEORkos2pQiSRkq-10" value="Save button: active&lt;br&gt;Displayed: measured_value" style="whiteSpace=wrap;html=1;rounded=1;" vertex="1" parent="WIyWlLk6GJQsqaUBKTNV-1">
          <mxGeometry x="260" y="710" width="180" height="60" as="geometry" />
        </mxCell>
        <mxCell id="V5mufsEORkos2pQiSRkq-16" style="edgeStyle=orthogonalEdgeStyle;rounded=0;orthogonalLoop=1;jettySize=auto;html=1;entryX=0;entryY=0.5;entryDx=0;entryDy=0;" edge="1" parent="WIyWlLk6GJQsqaUBKTNV-1" source="V5mufsEORkos2pQiSRkq-12" target="V5mufsEORkos2pQiSRkq-14">
          <mxGeometry relative="1" as="geometry" />
        </mxCell>
        <mxCell id="V5mufsEORkos2pQiSRkq-12" value="Click SAVE button" style="ellipse;whiteSpace=wrap;html=1;" vertex="1" parent="WIyWlLk6GJQsqaUBKTNV-1">
          <mxGeometry x="30" y="852.5" width="120" height="55" as="geometry" />
        </mxCell>
        <mxCell id="V5mufsEORkos2pQiSRkq-18" value="" style="edgeStyle=orthogonalEdgeStyle;rounded=0;orthogonalLoop=1;jettySize=auto;html=1;" edge="1" parent="WIyWlLk6GJQsqaUBKTNV-1" source="V5mufsEORkos2pQiSRkq-14" target="V5mufsEORkos2pQiSRkq-17">
          <mxGeometry relative="1" as="geometry" />
        </mxCell>
        <mxCell id="V5mufsEORkos2pQiSRkq-14" value="Send request to server&lt;br&gt;payload: &lt;br&gt;{...&lt;br&gt;config_value: null&lt;br&gt;}" style="shape=process;whiteSpace=wrap;html=1;backgroundOutline=1;rounded=1;" vertex="1" parent="WIyWlLk6GJQsqaUBKTNV-1">
          <mxGeometry x="250" y="840" width="200" height="80" as="geometry" />
        </mxCell>
        <mxCell id="V5mufsEORkos2pQiSRkq-17" value="Manual entry: ⬜&lt;br&gt;Displayed: measured_value" style="rounded=1;whiteSpace=wrap;html=1;" vertex="1" parent="WIyWlLk6GJQsqaUBKTNV-1">
          <mxGeometry x="250" y="1010" width="200" height="60" as="geometry" />
        </mxCell>
        <mxCell id="V5mufsEORkos2pQiSRkq-19" value="" style="edgeStyle=orthogonalEdgeStyle;rounded=0;orthogonalLoop=1;jettySize=auto;html=1;" edge="1" parent="WIyWlLk6GJQsqaUBKTNV-1" source="V5mufsEORkos2pQiSRkq-20" target="V5mufsEORkos2pQiSRkq-22">
          <mxGeometry relative="1" as="geometry" />
        </mxCell>
        <mxCell id="V5mufsEORkos2pQiSRkq-20" value="Data received from the service:&lt;br&gt;measured_value: ✔&lt;br&gt;config_value: ❌" style="shape=parallelogram;perimeter=parallelogramPerimeter;whiteSpace=wrap;html=1;fixedSize=1;" vertex="1" parent="WIyWlLk6GJQsqaUBKTNV-1">
          <mxGeometry x="870" y="270" width="220" height="60" as="geometry" />
        </mxCell>
        <mxCell id="V5mufsEORkos2pQiSRkq-21" value="" style="edgeStyle=orthogonalEdgeStyle;rounded=0;orthogonalLoop=1;jettySize=auto;html=1;" edge="1" parent="WIyWlLk6GJQsqaUBKTNV-1" source="V5mufsEORkos2pQiSRkq-22" target="V5mufsEORkos2pQiSRkq-24">
          <mxGeometry relative="1" as="geometry" />
        </mxCell>
        <mxCell id="V5mufsEORkos2pQiSRkq-22" value="Manual entry: ⬜&lt;br style=&quot;border-color: var(--border-color);&quot;&gt;Display: measured_value" style="rounded=1;whiteSpace=wrap;html=1;" vertex="1" parent="WIyWlLk6GJQsqaUBKTNV-1">
          <mxGeometry x="860" y="410" width="240" height="60" as="geometry" />
        </mxCell>
        <mxCell id="V5mufsEORkos2pQiSRkq-45" value="" style="edgeStyle=orthogonalEdgeStyle;rounded=0;orthogonalLoop=1;jettySize=auto;html=1;" edge="1" parent="WIyWlLk6GJQsqaUBKTNV-1" source="V5mufsEORkos2pQiSRkq-24" target="V5mufsEORkos2pQiSRkq-28">
          <mxGeometry relative="1" as="geometry" />
        </mxCell>
        <mxCell id="V5mufsEORkos2pQiSRkq-24" value="Manual entry: ✅&lt;br&gt;value: config_value" style="shape=parallelogram;perimeter=parallelogramPerimeter;whiteSpace=wrap;html=1;fixedSize=1;rounded=1;" vertex="1" parent="WIyWlLk6GJQsqaUBKTNV-1">
          <mxGeometry x="870" y="550" width="220" height="60" as="geometry" />
        </mxCell>
        <mxCell id="V5mufsEORkos2pQiSRkq-25" style="edgeStyle=orthogonalEdgeStyle;rounded=0;orthogonalLoop=1;jettySize=auto;html=1;entryX=0;entryY=0;entryDx=0;entryDy=0;" edge="1" parent="WIyWlLk6GJQsqaUBKTNV-1" source="V5mufsEORkos2pQiSRkq-26" target="V5mufsEORkos2pQiSRkq-24">
          <mxGeometry relative="1" as="geometry" />
        </mxCell>
        <mxCell id="V5mufsEORkos2pQiSRkq-26" value="Check manual entry" style="ellipse;whiteSpace=wrap;html=1;" vertex="1" parent="WIyWlLk6GJQsqaUBKTNV-1">
          <mxGeometry x="630" y="528" width="120" height="55" as="geometry" />
        </mxCell>
        <mxCell id="V5mufsEORkos2pQiSRkq-27" value="" style="edgeStyle=orthogonalEdgeStyle;rounded=0;orthogonalLoop=1;jettySize=auto;html=1;" edge="1" parent="WIyWlLk6GJQsqaUBKTNV-1" source="V5mufsEORkos2pQiSRkq-28" target="V5mufsEORkos2pQiSRkq-32">
          <mxGeometry relative="1" as="geometry" />
        </mxCell>
        <mxCell id="V5mufsEORkos2pQiSRkq-28" value="Save button: active&lt;br&gt;Display: config_value" style="whiteSpace=wrap;html=1;rounded=1;" vertex="1" parent="WIyWlLk6GJQsqaUBKTNV-1">
          <mxGeometry x="890" y="692.5" width="180" height="60" as="geometry" />
        </mxCell>
        <mxCell id="V5mufsEORkos2pQiSRkq-29" style="edgeStyle=orthogonalEdgeStyle;rounded=0;orthogonalLoop=1;jettySize=auto;html=1;entryX=0;entryY=0.5;entryDx=0;entryDy=0;" edge="1" parent="WIyWlLk6GJQsqaUBKTNV-1" source="V5mufsEORkos2pQiSRkq-30" target="V5mufsEORkos2pQiSRkq-32">
          <mxGeometry relative="1" as="geometry" />
        </mxCell>
        <mxCell id="V5mufsEORkos2pQiSRkq-30" value="Click SAVE button" style="ellipse;whiteSpace=wrap;html=1;" vertex="1" parent="WIyWlLk6GJQsqaUBKTNV-1">
          <mxGeometry x="630" y="832.5" width="120" height="55" as="geometry" />
        </mxCell>
        <mxCell id="V5mufsEORkos2pQiSRkq-31" value="" style="edgeStyle=orthogonalEdgeStyle;rounded=0;orthogonalLoop=1;jettySize=auto;html=1;" edge="1" parent="WIyWlLk6GJQsqaUBKTNV-1" source="V5mufsEORkos2pQiSRkq-32" target="V5mufsEORkos2pQiSRkq-33">
          <mxGeometry relative="1" as="geometry" />
        </mxCell>
        <mxCell id="V5mufsEORkos2pQiSRkq-32" value="Send request to server&lt;br&gt;payload: &lt;br&gt;{...&lt;br&gt;config_value: !null&lt;br&gt;}" style="shape=process;whiteSpace=wrap;html=1;backgroundOutline=1;rounded=1;" vertex="1" parent="WIyWlLk6GJQsqaUBKTNV-1">
          <mxGeometry x="880" y="820" width="200" height="80" as="geometry" />
        </mxCell>
        <mxCell id="V5mufsEORkos2pQiSRkq-33" value="Manual entry: ✅&lt;br&gt;Displayed: config_value" style="rounded=1;whiteSpace=wrap;html=1;" vertex="1" parent="WIyWlLk6GJQsqaUBKTNV-1">
          <mxGeometry x="880" y="990" width="200" height="60" as="geometry" />
        </mxCell>
        <mxCell id="V5mufsEORkos2pQiSRkq-46" style="edgeStyle=orthogonalEdgeStyle;rounded=0;orthogonalLoop=1;jettySize=auto;html=1;entryX=0.021;entryY=0.675;entryDx=0;entryDy=0;entryPerimeter=0;" edge="1" parent="WIyWlLk6GJQsqaUBKTNV-1" source="V5mufsEORkos2pQiSRkq-34" target="V5mufsEORkos2pQiSRkq-24">
          <mxGeometry relative="1" as="geometry" />
        </mxCell>
        <mxCell id="V5mufsEORkos2pQiSRkq-34" value="Enter config_value" style="ellipse;whiteSpace=wrap;html=1;" vertex="1" parent="WIyWlLk6GJQsqaUBKTNV-1">
          <mxGeometry x="630" y="585.5" width="120" height="55" as="geometry" />
        </mxCell>
      </root>
    </mxGraphModel>
  </diagram>
</mxfile>
